<svg width="24" height="28" viewBox="0 0 24 28" fill="none" xmlns="http://www.w3.org/2000/svg">
<path d="M0 8.63583H0.958333C2.0125 8.63583 2.875 7.73903 2.875 6.64294V1.99288C2.875 0.896798 2.0125 5.06816e-07 0.958333 5.06816e-07H0V8.63583Z" transform="translate(20.8145 8.70226)" fill="#4EFC9B" fill-opacity="0.83"/>
<path d="M0 8.63583H0.958333C2.0125 8.63583 2.875 7.73903 2.875 6.64294V1.99288C2.875 0.896798 2.0125 5.06816e-07 0.958333 5.06816e-07H0V8.63583Z" transform="translate(3.56445 8.56939) scale(-1 1)" fill="#4EFC9B" fill-opacity="0.83"/>
<path fill-rule="evenodd" clip-rule="evenodd" d="M10.8613 0.631073L9.80713 0.265717C9.104 0.0996399 8.36963 0 7.63477 0C6.8999 0 6.16504 0.0996399 5.4624 0.265717L4.4082 0.59787C1.78906 1.62752 0 3.88612 0 6.51009C0 6.5433 15.3013 6.51009 15.3013 6.51009C15.2695 3.91934 13.4487 1.66074 10.8613 0.631073ZM5.3667 4.65007C5.86084 4.65007 6.26123 4.23369 6.26123 3.72005C6.26123 3.20642 5.86084 2.79004 5.3667 2.79004C4.87256 2.79004 4.47217 3.20642 4.47217 3.72005C4.47217 4.23369 4.87256 4.65007 5.3667 4.65007ZM10.7651 3.72005C10.7651 4.23369 10.3647 4.65007 9.87061 4.65007C9.37646 4.65007 8.97607 4.23369 8.97607 3.72005C8.97607 3.20642 9.37646 2.79004 9.87061 2.79004C10.3647 2.79004 10.7651 3.20642 10.7651 3.72005Z" transform="translate(4.58691)" fill="#4EFC9B" fill-opacity="0.83"/>
<path d="M-4.87434e-07 10.8612C-4.87434e-07 12.3891 1.21389 13.6512 2.68333 13.6512V18.567C2.68333 19.4638 3.48194 20.1945 4.47222 20.1945C5.4625 20.1945 6.26111 19.4638 6.26111 18.567V13.6512H8.97639V18.567C8.97639 19.4638 9.775 20.1945 10.7653 20.1945C11.7556 20.1945 12.5542 19.4638 12.5542 18.567V13.6512C14.0556 13.6512 15.2694 12.3891 15.2694 10.8612V0.996441C15.2694 0.431791 14.8542 2.53408e-07 14.3111 2.53408e-07H0.958333C0.415277 2.53408e-07 -4.87434e-07 0.431791 -4.87434e-07 0.996441V10.8612ZM2.68333 13.6512V18.567C2.68333 19.4638 3.48194 20.1945 4.47222 20.1945" transform="translate(4.55469 7.80546)" fill="#4EFC9B" fill-opacity="0.83"/>
<g opacity="0.5">
<g opacity="0.5">
<path opacity="0.5" d="M0 3.28826V4.84935C0 5.74614 0.798611 6.47687 1.78889 6.47687C2.77917 6.47687 3.57778 5.74614 3.57778 4.84935V0C2.36389 1.32859 1.15 2.42467 0 3.28826Z" transform="translate(7.23828 21.5231)" fill="#4EFC9B" fill-opacity="0.83"/>
</g>
</g>
</svg>
