<svg width="23" height="28" viewBox="0 0 23 28" fill="none" xmlns="http://www.w3.org/2000/svg">
<path d="M1.62344 2.19161C2.5607 1.09854 4.09059 0.233189 5.44178 0C5.44178 1.42646 4.86739 2.95676 3.85172 4.19011C2.82511 5.42528 1.35904 6.2123 0.000559958 6.28152C-0.0249688 4.6911 0.82659 3.11708 1.62344 2.19161Z" transform="translate(11.686)" fill="#EDEDED"/>
<path d="M20.2312 17.2308C18.9767 19.0653 17.8881 20.4718 16.2853 20.4991C15.4629 20.5155 14.9195 20.2823 14.2922 20.0108C13.6029 19.7121 12.8207 19.375 11.6081 19.375C10.3444 19.375 9.5275 19.7212 8.80905 20.0291C8.20549 20.2859 7.68398 20.5082 6.94 20.5373C5.39735 20.5829 4.13734 18.9742 2.88279 17.1616C-0.561731 12.1899 -0.60367 6.36019 1.10492 3.39614C2.26099 1.38853 4.35068 0.120563 6.56072 0.0859493C6.58078 0.0859493 6.60084 0.0859493 6.6209 0.0859493C7.54175 0.0859493 8.47171 0.455773 9.29592 0.781872C10.0253 1.07154 10.6562 1.32112 11.2343 1.32112C11.7631 1.32112 12.3885 1.07518 13.1124 0.789159C14.1263 0.390188 15.3845 -0.10716 16.6481 0.0203649C17.527 0.0568007 19.6423 0.348287 21.1594 2.22291C20.1437 2.96984 18.2747 4.75701 18.3038 7.74474C18.3367 11.4539 20.9479 13.1864 22 13.733C21.732 14.4945 21.1794 15.8481 20.2312 17.2308Z" transform="translate(0.689453 7.4617)" fill="#EDEDED"/>
</svg>
