<svg width="28" height="24" viewBox="0 0 28 24" fill="none" xmlns="http://www.w3.org/2000/svg">
<path d="M24.3101 22.5261H2.21878C0.988803 22.5261 0 21.5189 0 20.2661V2.25998C0 1.00716 0.988803 9.3708e-08 2.21878 9.3708e-08H24.3342C25.5642 9.3708e-08 26.553 1.00716 26.553 2.25998V20.2661C26.5289 21.5189 25.5401 22.5261 24.3101 22.5261Z" transform="translate(0.723633 0.736954)" fill="white"/>
<path d="M0.723514 14.6653C0.313523 14.6653 1.83999e-07 14.346 1.83999e-07 13.9284V0.73695C1.83999e-07 0.319345 0.313523 -1.87416e-07 0.723514 -1.87416e-07C1.13351 -1.87416e-07 1.44703 0.319345 1.44703 0.73695V13.9529C1.44703 14.346 1.13351 14.6653 0.723514 14.6653Z" transform="translate(7.40381 8.7697)" fill="#DEDFE6"/>
<path d="M26.5289 4.51996H0V2.25998C0 1.00716 0.988803 9.3708e-08 2.21878 9.3708e-08H24.3342C25.5642 9.3708e-08 26.553 1.00716 26.553 2.25998L26.5289 4.51996Z" transform="translate(0.723633 0.736954)" fill="#A8B2C6"/>
<path d="M0.723514 -1.87416e-07H11.4315C11.8415 -1.87416e-07 12.155 0.319345 12.155 0.73695V3.75844C12.155 4.17605 11.8415 4.49539 11.4315 4.49539H0.723514C0.313523 4.49539 -1.83999e-07 4.17605 -1.83999e-07 3.75844V0.73695C-1.83999e-07 0.319345 0.313523 -1.87416e-07 0.723514 -1.87416e-07Z" transform="translate(11.769 8.64688)" fill="#DEDFE6"/>
<path d="M0.723514 7.49664e-07H3.68992C4.09991 7.49664e-07 4.41344 0.319346 4.41344 0.736951V3.75844C4.41344 4.17605 4.09991 4.49539 3.68992 4.49539H0.723514C0.313523 4.49539 -1.83999e-07 4.17605 -1.83999e-07 3.75844V0.736951C-1.83999e-07 0.319346 0.313523 7.49664e-07 0.723514 7.49664e-07Z" transform="translate(11.769 15.4023)" fill="#D3B3D5"/>
<path d="M25.0577 9.3708e-08H2.94229C1.32644 9.3708e-08 0 1.35107 0 2.99693V21.0031C0 22.6489 1.32644 24 2.94229 24H25.0336C26.6494 24 27.9759 22.6735 28 21.0031V2.99693C28 1.35107 26.6736 9.3708e-08 25.0577 9.3708e-08ZM1.44703 3.02149C1.44703 2.18628 2.12231 1.49846 2.94229 1.49846V1.4739H25.0336C25.8536 1.4739 26.5289 2.16172 26.5289 2.99693V4.51996H1.44703V3.02149ZM25.0577 22.5507H2.94229C2.12231 22.5507 1.44703 21.8628 1.44703 21.0276V5.99386H26.553V21.0276C26.553 21.8628 25.8777 22.5507 25.0577 22.5507Z" fill="#464C55"/>
<path d="M0.8441 1.71955C0.385874 1.71955 0 1.32651 0 0.859775C0 0.39304 0.385874 -1.87416e-07 0.8441 -1.87416e-07C1.30233 -1.87416e-07 1.6882 0.39304 1.6882 0.859775C1.66408 1.32651 1.30233 1.71955 0.8441 1.71955Z" transform="translate(2.65283 2.13716)" fill="white"/>
<path d="M0.8441 1.71955C0.385874 1.71955 9.19996e-08 1.32651 9.19996e-08 0.859775C9.19996e-08 0.39304 0.385874 -1.87416e-07 0.8441 -1.87416e-07C1.30233 -1.87416e-07 1.6882 0.39304 1.6882 0.859775C1.6882 1.32651 1.30233 1.71955 0.8441 1.71955Z" transform="translate(4.84766 2.13716)" fill="white"/>
<path d="M0.8441 1.71955C0.385874 1.71955 -1.83999e-07 1.32651 -1.83999e-07 0.859775C-1.83999e-07 0.39304 0.385874 -1.87416e-07 0.8441 -1.87416e-07C1.30233 -1.87416e-07 1.6882 0.39304 1.6882 0.859775C1.66408 1.32651 1.30233 1.71955 0.8441 1.71955Z" transform="translate(7.06641 2.13716)" fill="white"/>
<path d="M5.13695 1.4739H0.723515C0.313523 1.4739 3.67998e-07 1.15455 3.67998e-07 0.73695C3.67998e-07 0.319345 0.313523 0 0.723515 0H5.13695C5.54694 0 5.86046 0.319345 5.86046 0.73695C5.86046 1.15455 5.54694 1.4739 5.13695 1.4739Z" transform="translate(17.8228 15.3286)" fill="#DEDFE6"/>
<path d="M5.13695 1.4739H0.723515C0.313523 1.4739 3.67998e-07 1.15456 3.67998e-07 0.736951C3.67998e-07 0.319346 0.313523 7.49664e-07 0.723515 7.49664e-07H5.13695C5.54694 7.49664e-07 5.86046 0.319346 5.86046 0.736951C5.86046 1.15456 5.54694 1.4739 5.13695 1.4739Z" transform="translate(17.8223 18.4729)" fill="#DEDFE6"/>
</svg>
